PathFileType  4	(X/Y/Z) C:\Users\antoi\Documents\MyRepositories\mobilecap\ResultsAnalysis
DataRate	CameraRate	NumFrames	NumMarkers	Units	OrigDataRate	OrigDataStartFrame	OrigNumFrames
100.0	100.0	4	51	mm	100.0	332	662
Frame#	Time	r_knee			r_shank_antsup			r_ankle			r_calc			r_5meta			r_toe			L_knee			L_shank_antsup			L_ankle			L_calc			L_5meta			L_toe			r_sh2			r_sh3			r_sh4			L_sh2			L_sh3			r_thigh1			r_thigh2			r_thigh3			r_thigh4			r_thigh5			L_thigh1			L_thigh2			L_thigh3			L_thigh4			r.ASIS			r.PSIS			L.ASIS			L.PSIS			C7			R_Shoulder			L_Shoulder			R_Sternum			L_Sternum			R_humerus			R_elbow_med			R_elbow_lat			R_forearm			R_wrist_radius			R_wrist_ulna			L_humerus			L_elbow_med			L_elbow_lat			L_forearm			L_wrist_radius			L_wrist_ulna			R_HJC			L_HJC			R_HJC_reg			L_HJC_reg			
		X1	Y1	Z1	X2	Y2	Z2	X3	Y3	Z3	X4	Y4	Z4	X5	Y5	Z5	X6	Y6	Z6	X7	Y7	Z7	X8	Y8	Z8	X9	Y9	Z9	X10	Y10	Z10	X11	Y11	Z11	X12	Y12	Z12	X13	Y13	Z13	X14	Y14	Z14	X15	Y15	Z15	X16	Y16	Z16	X17	Y17	Z17	X18	Y18	Z18	X19	Y19	Z19	X20	Y20	Z20	X21	Y21	Z21	X22	Y22	Z22	X23	Y23	Z23	X24	Y24	Z24	X25	Y25	Z25	X26	Y26	Z26	X27	Y27	Z27	X28	Y28	Z28	X29	Y29	Z29	X30	Y30	Z30	X31	Y31	Z31	X32	Y32	Z32	X33	Y33	Z33	X34	Y34	Z34	X35	Y35	Z35	X36	Y36	Z36	X37	Y37	Z37	X38	Y38	Z38	X39	Y39	Z39	X40	Y40	Z40	X41	Y41	Z41	X42	Y42	Z42	X43	Y43	Z43	X44	Y44	Z44	X45	Y45	Z45	X46	Y46	Z46	X47	Y47	Z47	X48	Y48	Z48	X49	Y49	Z49	X50	Y50	Z50	X51	Y51	Z51	

332	3.31000000	-219.82595	488.10095	-420.50234	-175.99873	417.79909	-421.93532	-303.27382	98.16969	-403.23867	-370.28910	61.11380	-440.55602	-205.29520	48.21002	-356.29337	-154.69109	78.01303	-405.08672	-232.93057	486.69137	-902.08159	-195.99506	396.27469	-918.18934	-307.13451	99.69078	-905.10954	-369.07743	59.64513	-860.71160	-202.70463	47.92584	-954.23545	-158.81076	77.18575	-905.43596	-220.02289	312.47019	-394.26700	-250.60385	444.34560	-403.47475	-288.47499	337.22620	-391.18865	-282.44179	420.02007	-911.88167	-304.94307	300.61262	-925.65229	-364.88666	774.01892	-469.73745	-299.03056	686.80610	-446.06091	-333.17541	637.53357	-417.32296	-455.22940	705.21020	-463.31495	-381.25860	615.93316	-438.46453	-377.43884	718.78634	-903.51140	-284.57688	616.11229	-906.52079	-455.75044	644.41701	-854.81337	-358.08039	544.64962	-873.20651	-372.00632	872.29249	-544.86823	-552.90717	929.03606	-619.71567	-377.98586	865.40034	-793.37995	-561.81480	935.69786	-715.17839	-426.32764	1329.07156	-679.41638	-318.20575	1298.04906	-520.71290	-351.97000	1292.67485	-849.18607	-285.06046	1274.94222	-659.83991	-284.69769	1275.84364	-707.13663	-290.01909	1193.79159	-430.72422	-312.68957	972.75396	-403.92606	-274.96989	1010.87148	-343.63363	-160.43262	1025.90300	-423.33941	-63.54788	1033.00241	-502.71161	-45.85439	1004.55907	-494.01228	-331.58486	1201.79470	-929.14805	-343.40939	962.79203	-945.83577	-319.95431	1010.92201	-1012.76949	-234.68882	1039.98261	-948.15875	-117.17509	1062.63133	-866.26016	-97.30776	1043.39451	-885.89749	-455.51572	800.56027	-565.70216	-461.38804	800.76101	-772.08992	-444.66649	796.38529	-577.70958	-459.87893	807.75991	-740.73391	
333	3.32000000	-219.02331	485.81526	-418.69759	-172.74299	415.91502	-419.64574	-303.28372	97.82691	-403.16218	-370.32503	61.07217	-440.55256	-205.37864	48.29058	-356.08930	-154.71012	77.86287	-405.07839	-231.38593	484.07583	-903.55063	-192.86884	394.28999	-919.79975	-305.98395	98.76658	-905.15531	-368.14784	59.88241	-860.90995	-202.16146	46.57766	-954.43748	-158.02572	75.56331	-905.78550	-217.86375	311.04996	-392.58114	-246.87743	442.97647	-401.04085	-285.89558	336.33335	-389.13069	-279.32813	418.36931	-913.09735	-302.41160	299.14886	-926.25689	-373.60336	766.03875	-467.58280	-303.71712	682.24421	-443.46412	-337.90301	630.13829	-416.97070	-461.55158	694.00265	-463.95787	-384.75149	607.25398	-438.98030	-383.11091	711.85058	-903.82799	-286.65178	612.38166	-907.60874	-458.76317	634.61453	-855.19399	-357.69665	538.36562	-874.54498	-375.76429	856.55960	-544.80357	-554.15797	921.51038	-619.02102	-381.88626	850.79146	-793.63519	-562.99134	929.11880	-714.90784	-425.71504	1315.81098	-680.23694	-317.20568	1286.85109	-521.63238	-350.86391	1280.75962	-849.45213	-284.29488	1262.37046	-660.29187	-283.82302	1263.31894	-707.42956	-288.07396	1183.82260	-431.23570	-306.58205	962.68087	-402.59746	-269.86696	1002.06076	-342.90007	-155.93765	1019.00180	-422.94364	-59.86809	1027.99790	-503.39008	-41.48422	999.98098	-494.70144	-329.24334	1190.82717	-929.59508	-337.76710	951.84806	-948.46451	-314.76744	1000.63256	-1014.59784	-230.70527	1031.67422	-949.89205	-114.45633	1055.99756	-866.53760	-94.04013	1037.42412	-886.17332	-462.39957	788.66607	-565.91829	-468.37365	789.96622	-772.29707	-451.50052	783.74035	-577.94793	-466.52870	796.67987	-741.06857	
334	3.33000000	-217.94782	483.77415	-417.14321	-169.70432	414.49632	-417.69007	-303.53169	97.89947	-402.92462	-370.42208	61.01814	-440.56725	-205.49263	48.52159	-355.69328	-154.80611	77.87638	-404.97474	-229.83678	481.79007	-905.23244	-189.93622	392.43690	-921.48300	-305.22466	98.08083	-905.10510	-367.53014	59.98413	-861.16323	-201.80448	45.84976	-954.74540	-157.51654	74.47632	-905.98130	-216.00268	310.14567	-391.27067	-243.31835	442.09698	-399.09709	-283.74994	336.09545	-387.65819	-276.24057	417.04707	-914.32885	-300.06846	297.92888	-927.11681	-381.83551	758.14293	-465.74319	-308.83885	677.16796	-441.70254	-342.32179	622.58400	-417.15220	-467.32003	683.23739	-464.50598	-388.16560	598.71284	-439.58881	-388.53057	704.73827	-904.47349	-288.62393	608.77962	-908.77695	-461.35697	625.03387	-855.71651	-357.02936	532.35945	-875.50550	-379.59467	840.70026	-545.26656	-555.75135	913.07306	-618.49711	-386.17056	836.18859	-794.05146	-564.45122	921.39831	-714.66637	-425.02794	1301.90638	-681.00322	-316.53427	1275.33853	-522.63620	-349.84375	1268.34387	-849.93395	-283.50248	1249.42347	-660.94306	-283.03091	1250.13802	-707.65928	-286.25296	1173.10423	-431.64141	-300.42291	952.12717	-400.97570	-264.54373	993.10225	-341.79644	-151.61307	1012.00678	-422.82616	-56.32092	1022.44250	-504.10007	-37.31217	994.55107	-495.06899	-326.87889	1179.24862	-930.25802	-331.84955	940.41296	-951.59098	-309.50688	990.32106	-1016.80439	-226.75665	1023.06889	-951.65579	-111.74221	1048.97433	-867.05032	-90.82137	1031.00200	-886.60321	-468.95647	776.38762	-566.39980	-475.25223	778.82683	-772.76034	-458.24265	771.17702	-578.52937	-472.98922	785.29094	-741.53934	
335	3.34000000	-216.21373	482.35645	-415.31900	-166.84243	413.24680	-416.13369	-303.26979	97.90339	-402.53218	-370.39824	61.00594	-440.54388	-205.44482	48.41745	-355.38730	-154.74371	77.64068	-404.78617	-227.88677	480.19035	-907.14306	-187.10912	390.72134	-923.16469	-304.94200	97.79091	-904.97749	-368.13401	60.30598	-861.16892	-201.66027	45.76321	-955.26500	-157.33375	73.84534	-905.88830	-214.07511	309.20320	-390.12068	-240.18607	441.31655	-397.43122	-281.62856	335.81850	-386.43508	-273.25580	416.07410	-915.62031	-298.07751	297.06303	-928.12381	-389.40234	750.55377	-464.39282	-314.26575	671.71146	-440.42874	-346.15462	615.61629	-416.99877	-472.41487	672.97916	-464.77749	-391.25595	590.79547	-439.49259	-393.56151	697.58269	-904.85560	-290.29092	605.78298	-910.25907	-463.48095	615.62114	-856.12443	-355.78627	526.89187	-876.38157	-383.79105	825.52903	-545.86279	-557.92245	903.79057	-618.10151	-390.71173	821.80117	-794.21710	-566.54753	912.54143	-714.46454	-424.23318	1287.71875	-681.65266	-315.91631	1263.44869	-523.55983	-348.73457	1255.52770	-850.56352	-282.76657	1235.98256	-661.65801	-282.28051	1236.44766	-707.84898	-284.50415	1161.88667	-431.86632	-294.45276	941.09787	-399.30665	-259.14183	983.89189	-340.47992	-147.45121	1004.80052	-422.84200	-52.93399	1016.41272	-504.62382	-33.35478	988.78445	-495.29552	-324.54002	1167.16928	-931.17086	-325.78556	928.77472	-954.92493	-304.24779	979.92374	-1019.13230	-222.74311	1013.92821	-953.12794	-109.00594	1041.54885	-867.78757	-87.60786	1024.17266	-887.30002	-475.22904	764.16937	-566.70213	-481.80667	767.33617	-773.04470	-464.63995	758.93634	-578.97295	-479.20068	773.71008	-741.65163	
